<mxfile host="app.diagrams.net" modified="2020-11-25T08:08:38.593Z" agent="5.0 (Windows NT 10.0; Win64; x64) AppleWebKit/537.36 (KHTML, like Gecko) Chrome/86.0.4240.198 Safari/537.36" etag="zuGiqKhaJF_Yh6JMXwhf" version="13.10.1" type="gitlab">
  <diagram id="u2k9YgKXEppA67yH9Mc5" name="Page-1">
    <mxGraphModel dx="1021" dy="567" grid="0" gridSize="10" guides="1" tooltips="1" connect="1" arrows="1" fold="1" page="1" pageScale="1" pageWidth="827" pageHeight="1169" background="#ffffff" math="0" shadow="0">
      <root>
        <mxCell id="0" />
        <mxCell id="1" parent="0" />
        <mxCell id="-arFP9ezlj2UpWzrarVk-1" value="Utilisateur" style="swimlane;fontStyle=1;align=center;verticalAlign=top;childLayout=stackLayout;horizontal=1;startSize=26;horizontalStack=0;resizeParent=1;resizeParentMax=0;resizeLast=0;collapsible=1;marginBottom=0;" parent="1" vertex="1">
          <mxGeometry x="574" y="424.5" width="160" height="190" as="geometry" />
        </mxCell>
        <mxCell id="-arFP9ezlj2UpWzrarVk-2" value="Identifiant de l&#39;utilisateur" style="text;strokeColor=none;fillColor=none;align=left;verticalAlign=top;spacingLeft=4;spacingRight=4;overflow=hidden;rotatable=0;points=[[0,0.5],[1,0.5]];portConstraint=eastwest;fontStyle=4" parent="-arFP9ezlj2UpWzrarVk-1" vertex="1">
          <mxGeometry y="26" width="160" height="26" as="geometry" />
        </mxCell>
        <mxCell id="-arFP9ezlj2UpWzrarVk-3" value="Nom d&#39;utilisateur" style="text;strokeColor=none;fillColor=none;align=left;verticalAlign=top;spacingLeft=4;spacingRight=4;overflow=hidden;rotatable=0;points=[[0,0.5],[1,0.5]];portConstraint=eastwest;" parent="-arFP9ezlj2UpWzrarVk-1" vertex="1">
          <mxGeometry y="52" width="160" height="26" as="geometry" />
        </mxCell>
        <mxCell id="-arFP9ezlj2UpWzrarVk-4" value="Mot de passe" style="text;strokeColor=none;fillColor=none;align=left;verticalAlign=top;spacingLeft=4;spacingRight=4;overflow=hidden;rotatable=0;points=[[0,0.5],[1,0.5]];portConstraint=eastwest;" parent="-arFP9ezlj2UpWzrarVk-1" vertex="1">
          <mxGeometry y="78" width="160" height="26" as="geometry" />
        </mxCell>
        <mxCell id="-arFP9ezlj2UpWzrarVk-5" value="Statut d&#39;administrateur" style="text;strokeColor=none;fillColor=none;align=left;verticalAlign=top;spacingLeft=4;spacingRight=4;overflow=hidden;rotatable=0;points=[[0,0.5],[1,0.5]];portConstraint=eastwest;" parent="-arFP9ezlj2UpWzrarVk-1" vertex="1">
          <mxGeometry y="104" width="160" height="26" as="geometry" />
        </mxCell>
        <mxCell id="-arFP9ezlj2UpWzrarVk-6" value="Connecté" style="text;strokeColor=none;fillColor=none;align=left;verticalAlign=top;spacingLeft=4;spacingRight=4;overflow=hidden;rotatable=0;points=[[0,0.5],[1,0.5]];portConstraint=eastwest;" parent="-arFP9ezlj2UpWzrarVk-1" vertex="1">
          <mxGeometry y="130" width="160" height="26" as="geometry" />
        </mxCell>
        <mxCell id="-arFP9ezlj2UpWzrarVk-7" value="Score" style="text;strokeColor=none;fillColor=none;align=left;verticalAlign=top;spacingLeft=4;spacingRight=4;overflow=hidden;rotatable=0;points=[[0,0.5],[1,0.5]];portConstraint=eastwest;" parent="-arFP9ezlj2UpWzrarVk-1" vertex="1">
          <mxGeometry y="156" width="160" height="26" as="geometry" />
        </mxCell>
        <mxCell id="-arFP9ezlj2UpWzrarVk-8" value="" style="line;strokeWidth=1;fillColor=none;align=left;verticalAlign=middle;spacingTop=-1;spacingLeft=3;spacingRight=3;rotatable=0;labelPosition=right;points=[];portConstraint=eastwest;" parent="-arFP9ezlj2UpWzrarVk-1" vertex="1">
          <mxGeometry y="182" width="160" height="8" as="geometry" />
        </mxCell>
        <mxCell id="-arFP9ezlj2UpWzrarVk-9" style="edgeStyle=orthogonalEdgeStyle;rounded=0;orthogonalLoop=1;jettySize=auto;html=1;exitX=0.5;exitY=0;exitDx=0;exitDy=0;endArrow=none;endFill=0;startSize=13;endSize=11;entryX=0.5;entryY=1;entryDx=0;entryDy=0;" parent="1" source="-arFP9ezlj2UpWzrarVk-29" edge="1" target="-arFP9ezlj2UpWzrarVk-18">
          <mxGeometry relative="1" as="geometry">
            <mxPoint x="600" y="320" as="targetPoint" />
          </mxGeometry>
        </mxCell>
        <mxCell id="-arFP9ezlj2UpWzrarVk-10" value="Pli" style="swimlane;fontStyle=1;align=center;verticalAlign=top;childLayout=stackLayout;horizontal=1;startSize=26;horizontalStack=0;resizeParent=1;resizeParentMax=0;resizeLast=0;collapsible=1;marginBottom=0;" parent="1" vertex="1">
          <mxGeometry x="342" y="763" width="160" height="190" as="geometry" />
        </mxCell>
        <mxCell id="-arFP9ezlj2UpWzrarVk-11" value="Identifiant du pli" style="text;strokeColor=none;fillColor=none;align=left;verticalAlign=top;spacingLeft=4;spacingRight=4;overflow=hidden;rotatable=0;points=[[0,0.5],[1,0.5]];portConstraint=eastwest;fontStyle=4" parent="-arFP9ezlj2UpWzrarVk-10" vertex="1">
          <mxGeometry y="26" width="160" height="26" as="geometry" />
        </mxCell>
        <mxCell id="-arFP9ezlj2UpWzrarVk-12" value="Carte 1" style="text;strokeColor=none;fillColor=none;align=left;verticalAlign=top;spacingLeft=4;spacingRight=4;overflow=hidden;rotatable=0;points=[[0,0.5],[1,0.5]];portConstraint=eastwest;" parent="-arFP9ezlj2UpWzrarVk-10" vertex="1">
          <mxGeometry y="52" width="160" height="26" as="geometry" />
        </mxCell>
        <mxCell id="-arFP9ezlj2UpWzrarVk-13" value="Carte 2" style="text;strokeColor=none;fillColor=none;align=left;verticalAlign=top;spacingLeft=4;spacingRight=4;overflow=hidden;rotatable=0;points=[[0,0.5],[1,0.5]];portConstraint=eastwest;" parent="-arFP9ezlj2UpWzrarVk-10" vertex="1">
          <mxGeometry y="78" width="160" height="26" as="geometry" />
        </mxCell>
        <mxCell id="-arFP9ezlj2UpWzrarVk-14" value="Carte 3" style="text;strokeColor=none;fillColor=none;align=left;verticalAlign=top;spacingLeft=4;spacingRight=4;overflow=hidden;rotatable=0;points=[[0,0.5],[1,0.5]];portConstraint=eastwest;" parent="-arFP9ezlj2UpWzrarVk-10" vertex="1">
          <mxGeometry y="104" width="160" height="26" as="geometry" />
        </mxCell>
        <mxCell id="-arFP9ezlj2UpWzrarVk-15" value="Carte 4" style="text;strokeColor=none;fillColor=none;align=left;verticalAlign=top;spacingLeft=4;spacingRight=4;overflow=hidden;rotatable=0;points=[[0,0.5],[1,0.5]];portConstraint=eastwest;" parent="-arFP9ezlj2UpWzrarVk-10" vertex="1">
          <mxGeometry y="130" width="160" height="26" as="geometry" />
        </mxCell>
        <mxCell id="-arFP9ezlj2UpWzrarVk-16" value="Identifiant de la partie " style="text;strokeColor=none;fillColor=none;align=left;verticalAlign=top;spacingLeft=4;spacingRight=4;overflow=hidden;rotatable=0;points=[[0,0.5],[1,0.5]];portConstraint=eastwest;" parent="-arFP9ezlj2UpWzrarVk-10" vertex="1">
          <mxGeometry y="156" width="160" height="26" as="geometry" />
        </mxCell>
        <mxCell id="-arFP9ezlj2UpWzrarVk-17" value="" style="line;strokeWidth=1;fillColor=none;align=left;verticalAlign=middle;spacingTop=-1;spacingLeft=3;spacingRight=3;rotatable=0;labelPosition=right;points=[];portConstraint=eastwest;" parent="-arFP9ezlj2UpWzrarVk-10" vertex="1">
          <mxGeometry y="182" width="160" height="8" as="geometry" />
        </mxCell>
        <mxCell id="E3T8dcTo_AGosjMK_uAr-31" style="edgeStyle=orthogonalEdgeStyle;rounded=0;orthogonalLoop=1;jettySize=auto;html=1;exitX=0.5;exitY=0;exitDx=0;exitDy=0;entryX=0.5;entryY=1;entryDx=0;entryDy=0;endArrow=none;endFill=0;" edge="1" parent="1" source="-arFP9ezlj2UpWzrarVk-18" target="E3T8dcTo_AGosjMK_uAr-22">
          <mxGeometry relative="1" as="geometry" />
        </mxCell>
        <mxCell id="-arFP9ezlj2UpWzrarVk-18" value="Partie" style="swimlane;fontStyle=1;align=center;verticalAlign=top;childLayout=stackLayout;horizontal=1;startSize=26;horizontalStack=0;resizeParent=1;resizeParentMax=0;resizeLast=0;collapsible=1;marginBottom=0;" parent="1" vertex="1">
          <mxGeometry x="342" y="435" width="160" height="138" as="geometry" />
        </mxCell>
        <mxCell id="-arFP9ezlj2UpWzrarVk-19" value="Identifiant de la partie" style="text;strokeColor=none;fillColor=none;align=left;verticalAlign=top;spacingLeft=4;spacingRight=4;overflow=hidden;rotatable=0;points=[[0,0.5],[1,0.5]];portConstraint=eastwest;fontStyle=4" parent="-arFP9ezlj2UpWzrarVk-18" vertex="1">
          <mxGeometry y="26" width="160" height="26" as="geometry" />
        </mxCell>
        <mxCell id="-arFP9ezlj2UpWzrarVk-20" value="Nom du jeu" style="text;strokeColor=none;fillColor=none;align=left;verticalAlign=top;spacingLeft=4;spacingRight=4;overflow=hidden;rotatable=0;points=[[0,0.5],[1,0.5]];portConstraint=eastwest;" parent="-arFP9ezlj2UpWzrarVk-18" vertex="1">
          <mxGeometry y="52" width="160" height="26" as="geometry" />
        </mxCell>
        <mxCell id="-arFP9ezlj2UpWzrarVk-22" value="Identifiant des joueurs" style="text;strokeColor=none;fillColor=none;align=left;verticalAlign=top;spacingLeft=4;spacingRight=4;overflow=hidden;rotatable=0;points=[[0,0.5],[1,0.5]];portConstraint=eastwest;" parent="-arFP9ezlj2UpWzrarVk-18" vertex="1">
          <mxGeometry y="78" width="160" height="26" as="geometry" />
        </mxCell>
        <mxCell id="-arFP9ezlj2UpWzrarVk-25" value="Score" style="text;strokeColor=none;fillColor=none;align=left;verticalAlign=top;spacingLeft=4;spacingRight=4;overflow=hidden;rotatable=0;points=[[0,0.5],[1,0.5]];portConstraint=eastwest;" parent="-arFP9ezlj2UpWzrarVk-18" vertex="1">
          <mxGeometry y="104" width="160" height="26" as="geometry" />
        </mxCell>
        <mxCell id="-arFP9ezlj2UpWzrarVk-26" value="" style="line;strokeWidth=1;fillColor=none;align=left;verticalAlign=middle;spacingTop=-1;spacingLeft=3;spacingRight=3;rotatable=0;labelPosition=right;points=[];portConstraint=eastwest;" parent="-arFP9ezlj2UpWzrarVk-18" vertex="1">
          <mxGeometry y="130" width="160" height="8" as="geometry" />
        </mxCell>
        <mxCell id="-arFP9ezlj2UpWzrarVk-27" value="1,1" style="text;html=1;strokeColor=none;fillColor=none;align=center;verticalAlign=middle;whiteSpace=wrap;rounded=0;fontSize=12;" parent="1" vertex="1">
          <mxGeometry x="374" y="738" width="40" height="20" as="geometry" />
        </mxCell>
        <mxCell id="-arFP9ezlj2UpWzrarVk-28" value="1..*" style="text;html=1;strokeColor=none;fillColor=none;align=center;verticalAlign=middle;whiteSpace=wrap;rounded=0;fontSize=12;" parent="1" vertex="1">
          <mxGeometry x="436" y="575" width="40" height="20" as="geometry" />
        </mxCell>
        <mxCell id="-arFP9ezlj2UpWzrarVk-29" value="Compose" style="ellipse;whiteSpace=wrap;html=1;" parent="1" vertex="1">
          <mxGeometry x="373" y="639" width="98" height="55" as="geometry" />
        </mxCell>
        <mxCell id="E3T8dcTo_AGosjMK_uAr-4" style="edgeStyle=orthogonalEdgeStyle;rounded=0;orthogonalLoop=1;jettySize=auto;html=1;exitX=0.5;exitY=0;exitDx=0;exitDy=0;endArrow=none;endFill=0;startSize=13;endSize=11;entryX=0.5;entryY=1;entryDx=0;entryDy=0;" edge="1" parent="1" source="-arFP9ezlj2UpWzrarVk-10" target="-arFP9ezlj2UpWzrarVk-29">
          <mxGeometry relative="1" as="geometry">
            <mxPoint x="425" y="207" as="targetPoint" />
            <mxPoint x="425" y="456" as="sourcePoint" />
          </mxGeometry>
        </mxCell>
        <mxCell id="E3T8dcTo_AGosjMK_uAr-7" value="Belote " style="swimlane;fontStyle=1;align=center;verticalAlign=top;childLayout=stackLayout;horizontal=1;startSize=26;horizontalStack=0;resizeParent=1;resizeParentMax=0;resizeLast=0;collapsible=1;marginBottom=0;" vertex="1" parent="1">
          <mxGeometry x="2" y="377" width="157" height="294" as="geometry" />
        </mxCell>
        <mxCell id="E3T8dcTo_AGosjMK_uAr-8" value="Identifiant de la belote" style="text;strokeColor=none;fillColor=none;align=left;verticalAlign=top;spacingLeft=4;spacingRight=4;overflow=hidden;rotatable=0;points=[[0,0.5],[1,0.5]];portConstraint=eastwest;fontStyle=4" vertex="1" parent="E3T8dcTo_AGosjMK_uAr-7">
          <mxGeometry y="26" width="157" height="26" as="geometry" />
        </mxCell>
        <mxCell id="E3T8dcTo_AGosjMK_uAr-9" value="Identifiant des joueurs" style="text;strokeColor=none;fillColor=none;align=left;verticalAlign=top;spacingLeft=4;spacingRight=4;overflow=hidden;rotatable=0;points=[[0,0.5],[1,0.5]];portConstraint=eastwest;" vertex="1" parent="E3T8dcTo_AGosjMK_uAr-7">
          <mxGeometry y="52" width="157" height="26" as="geometry" />
        </mxCell>
        <mxCell id="E3T8dcTo_AGosjMK_uAr-10" value="Liste des mains" style="text;strokeColor=none;fillColor=none;align=left;verticalAlign=top;spacingLeft=4;spacingRight=4;overflow=hidden;rotatable=0;points=[[0,0.5],[1,0.5]];portConstraint=eastwest;" vertex="1" parent="E3T8dcTo_AGosjMK_uAr-7">
          <mxGeometry y="78" width="157" height="26" as="geometry" />
        </mxCell>
        <mxCell id="E3T8dcTo_AGosjMK_uAr-11" value="Score 1" style="text;strokeColor=none;fillColor=none;align=left;verticalAlign=top;spacingLeft=4;spacingRight=4;overflow=hidden;rotatable=0;points=[[0,0.5],[1,0.5]];portConstraint=eastwest;" vertex="1" parent="E3T8dcTo_AGosjMK_uAr-7">
          <mxGeometry y="104" width="157" height="26" as="geometry" />
        </mxCell>
        <mxCell id="E3T8dcTo_AGosjMK_uAr-12" value="Score 2" style="text;strokeColor=none;fillColor=none;align=left;verticalAlign=top;spacingLeft=4;spacingRight=4;overflow=hidden;rotatable=0;points=[[0,0.5],[1,0.5]];portConstraint=eastwest;" vertex="1" parent="E3T8dcTo_AGosjMK_uAr-7">
          <mxGeometry y="130" width="157" height="26" as="geometry" />
        </mxCell>
        <mxCell id="E3T8dcTo_AGosjMK_uAr-13" value="Atout" style="text;strokeColor=none;fillColor=none;align=left;verticalAlign=top;spacingLeft=4;spacingRight=4;overflow=hidden;rotatable=0;points=[[0,0.5],[1,0.5]];portConstraint=eastwest;" vertex="1" parent="E3T8dcTo_AGosjMK_uAr-7">
          <mxGeometry y="156" width="157" height="26" as="geometry" />
        </mxCell>
        <mxCell id="E3T8dcTo_AGosjMK_uAr-14" value="Maître" style="text;strokeColor=none;fillColor=none;align=left;verticalAlign=top;spacingLeft=4;spacingRight=4;overflow=hidden;rotatable=0;points=[[0,0.5],[1,0.5]];portConstraint=eastwest;" vertex="1" parent="E3T8dcTo_AGosjMK_uAr-7">
          <mxGeometry y="182" width="157" height="26" as="geometry" />
        </mxCell>
        <mxCell id="E3T8dcTo_AGosjMK_uAr-15" value="Equipe prenante" style="text;strokeColor=none;fillColor=none;align=left;verticalAlign=top;spacingLeft=4;spacingRight=4;overflow=hidden;rotatable=0;points=[[0,0.5],[1,0.5]];portConstraint=eastwest;" vertex="1" parent="E3T8dcTo_AGosjMK_uAr-7">
          <mxGeometry y="208" width="157" height="26" as="geometry" />
        </mxCell>
        <mxCell id="E3T8dcTo_AGosjMK_uAr-16" value="Etat de la partie" style="text;strokeColor=none;fillColor=none;align=left;verticalAlign=top;spacingLeft=4;spacingRight=4;overflow=hidden;rotatable=0;points=[[0,0.5],[1,0.5]];portConstraint=eastwest;" vertex="1" parent="E3T8dcTo_AGosjMK_uAr-7">
          <mxGeometry y="234" width="157" height="26" as="geometry" />
        </mxCell>
        <mxCell id="E3T8dcTo_AGosjMK_uAr-17" value="Identifiant de la partie " style="text;strokeColor=none;fillColor=none;align=left;verticalAlign=top;spacingLeft=4;spacingRight=4;overflow=hidden;rotatable=0;points=[[0,0.5],[1,0.5]];portConstraint=eastwest;" vertex="1" parent="E3T8dcTo_AGosjMK_uAr-7">
          <mxGeometry y="260" width="157" height="26" as="geometry" />
        </mxCell>
        <mxCell id="E3T8dcTo_AGosjMK_uAr-18" value="" style="line;strokeWidth=1;fillColor=none;align=left;verticalAlign=middle;spacingTop=-1;spacingLeft=3;spacingRight=3;rotatable=0;labelPosition=right;points=[];portConstraint=eastwest;" vertex="1" parent="E3T8dcTo_AGosjMK_uAr-7">
          <mxGeometry y="286" width="157" height="8" as="geometry" />
        </mxCell>
        <mxCell id="E3T8dcTo_AGosjMK_uAr-19" value="1,1" style="text;html=1;strokeColor=none;fillColor=none;align=center;verticalAlign=middle;whiteSpace=wrap;rounded=0;" vertex="1" parent="1">
          <mxGeometry x="156" y="530" width="40" height="20" as="geometry" />
        </mxCell>
        <mxCell id="E3T8dcTo_AGosjMK_uAr-22" value="Mains" style="swimlane;fontStyle=1;align=center;verticalAlign=top;childLayout=stackLayout;horizontal=1;startSize=26;horizontalStack=0;resizeParent=1;resizeParentMax=0;resizeLast=0;collapsible=1;marginBottom=0;" vertex="1" parent="1">
          <mxGeometry x="342" y="226" width="160" height="112" as="geometry" />
        </mxCell>
        <mxCell id="E3T8dcTo_AGosjMK_uAr-23" value="Identifiant de la main" style="text;strokeColor=none;fillColor=none;align=left;verticalAlign=top;spacingLeft=4;spacingRight=4;overflow=hidden;rotatable=0;points=[[0,0.5],[1,0.5]];portConstraint=eastwest;fontStyle=4" vertex="1" parent="E3T8dcTo_AGosjMK_uAr-22">
          <mxGeometry y="26" width="160" height="26" as="geometry" />
        </mxCell>
        <mxCell id="E3T8dcTo_AGosjMK_uAr-24" value="Liste des cartes " style="text;strokeColor=none;fillColor=none;align=left;verticalAlign=top;spacingLeft=4;spacingRight=4;overflow=hidden;rotatable=0;points=[[0,0.5],[1,0.5]];portConstraint=eastwest;" vertex="1" parent="E3T8dcTo_AGosjMK_uAr-22">
          <mxGeometry y="52" width="160" height="26" as="geometry" />
        </mxCell>
        <mxCell id="E3T8dcTo_AGosjMK_uAr-25" value="Identifiant de la partie " style="text;strokeColor=none;fillColor=none;align=left;verticalAlign=top;spacingLeft=4;spacingRight=4;overflow=hidden;rotatable=0;points=[[0,0.5],[1,0.5]];portConstraint=eastwest;" vertex="1" parent="E3T8dcTo_AGosjMK_uAr-22">
          <mxGeometry y="78" width="160" height="26" as="geometry" />
        </mxCell>
        <mxCell id="E3T8dcTo_AGosjMK_uAr-26" value="" style="line;strokeWidth=1;fillColor=none;align=left;verticalAlign=middle;spacingTop=-1;spacingLeft=3;spacingRight=3;rotatable=0;labelPosition=right;points=[];portConstraint=eastwest;" vertex="1" parent="E3T8dcTo_AGosjMK_uAr-22">
          <mxGeometry y="104" width="160" height="8" as="geometry" />
        </mxCell>
        <mxCell id="E3T8dcTo_AGosjMK_uAr-27" value="1...*" style="text;html=1;strokeColor=none;fillColor=none;align=center;verticalAlign=middle;whiteSpace=wrap;rounded=0;" vertex="1" parent="1">
          <mxGeometry x="364" y="411" width="40" height="20" as="geometry" />
        </mxCell>
        <mxCell id="E3T8dcTo_AGosjMK_uAr-28" value="1,1" style="text;html=1;strokeColor=none;fillColor=none;align=center;verticalAlign=middle;whiteSpace=wrap;rounded=0;" vertex="1" parent="1">
          <mxGeometry x="438" y="343" width="40" height="20" as="geometry" />
        </mxCell>
        <mxCell id="E3T8dcTo_AGosjMK_uAr-32" value="Compose" style="ellipse;whiteSpace=wrap;html=1;" vertex="1" parent="1">
          <mxGeometry x="371" y="359" width="98" height="55" as="geometry" />
        </mxCell>
        <mxCell id="E3T8dcTo_AGosjMK_uAr-39" style="edgeStyle=orthogonalEdgeStyle;rounded=0;orthogonalLoop=1;jettySize=auto;html=1;exitX=1;exitY=0.5;exitDx=0;exitDy=0;entryX=-0.019;entryY=0.269;entryDx=0;entryDy=0;entryPerimeter=0;endArrow=none;endFill=0;" edge="1" parent="1" source="E3T8dcTo_AGosjMK_uAr-38" target="-arFP9ezlj2UpWzrarVk-22">
          <mxGeometry relative="1" as="geometry" />
        </mxCell>
        <mxCell id="E3T8dcTo_AGosjMK_uAr-38" value="Compose" style="ellipse;whiteSpace=wrap;html=1;" vertex="1" parent="1">
          <mxGeometry x="202" y="492" width="98" height="55" as="geometry" />
        </mxCell>
        <mxCell id="E3T8dcTo_AGosjMK_uAr-41" style="edgeStyle=orthogonalEdgeStyle;rounded=0;orthogonalLoop=1;jettySize=auto;html=1;exitX=1;exitY=0.5;exitDx=0;exitDy=0;endArrow=none;endFill=0;" edge="1" parent="1" source="E3T8dcTo_AGosjMK_uAr-12" target="E3T8dcTo_AGosjMK_uAr-38">
          <mxGeometry relative="1" as="geometry">
            <mxPoint x="159" y="520" as="sourcePoint" />
            <mxPoint x="338.96000000000004" y="519.994" as="targetPoint" />
          </mxGeometry>
        </mxCell>
        <mxCell id="E3T8dcTo_AGosjMK_uAr-42" value="1..*" style="text;html=1;strokeColor=none;fillColor=none;align=center;verticalAlign=middle;whiteSpace=wrap;rounded=0;fontSize=12;" vertex="1" parent="1">
          <mxGeometry x="302" y="494" width="40" height="20" as="geometry" />
        </mxCell>
      </root>
    </mxGraphModel>
  </diagram>
</mxfile>
